# xmcd CD database file
#
# Track frame offsets:
#	150
#	19129
#	40947
#	64465
#	77328
#	101610
#	126100
#	145827
#	166131
#	184741
#	205750
#	226667
#	253051
#	264573
#	280677
#	315792
#	329128
#
# Disc length: 4700 seconds
#
# Revision: 0
# Processed by: cddbd v1.5.2PL0 Copyright (c) Steve Scherf et al.
# Submitted via: CDex 1.70beta2
#
DISCID=e6125a11
DTITLE=Saint Germain Des Pres Cafe - Saint Germain Des Pres Cafe Vol. 9 [CD1]
DYEAR=1900
DGENRE=Jazz
TTITLE0=Wildflower - Nostalgia 77
TTITLE1=I'll Be Right Back - Us3
TTITLE2=Prussian Blue (Nicola Conte Jazz Dance Rework) - Native
TTITLE3=Come To Me - Koop Feat. Yukimi Nagano
TTITLE4=Trading Eights - The Five Corners Quintet
TTITLE5=Summertime - Sheila Landis
TTITLE6=Everybody Knows - Metropolitan Jazz Affair
TTITLE7=Nomad (Radio Citizen Mix) - Micatone
TTITLE8=Macedonia - Third Eye A.K.A Nicola Conte
TTITLE9=Things We Do - Nils Krogh
TTITLE10=Calypso Blues - Spiritual South
TTITLE11=Rejoice In Righteousness (Smoove's Nu Jazz Remix) - Smoove feat. The Bukky Leo Quintet and Darren "The Sax Machine" Grainger
TTITLE12=Last Night - Me and You
TTITLE13=Good Things - Spengler
TTITLE14=In All The Wrong Places - Kero One
TTITLE15=People Hold On (Alternat A Capella Take) - [Re:Jazz]
TTITLE16=That Night (Live At 'The SK Office') - Jazzanova Feat. Clara Hil
EXTD=
EXTT0=
EXTT1=
EXTT2=
EXTT3=
EXTT4=
EXTT5=
EXTT6=
EXTT7=
EXTT8=
EXTT9=
EXTT10=
EXTT11=
EXTT12=
EXTT13=
EXTT14=
EXTT15=
EXTT16=
PLAYORDER=
